<mxfile host="app.diagrams.net" modified="2020-10-04T12:35:25.411Z" agent="5.0 (Macintosh; Intel Mac OS X 10_15_4) AppleWebKit/537.36 (KHTML, like Gecko) Chrome/85.0.4183.102 Safari/537.36" etag="Urb1SGihtUjVYOXCvnxe" version="13.1.3" type="github">
  <diagram id="PQWDo7nC9QCLLltnluEH" name="Page-1">
    <mxGraphModel dx="1186" dy="645" grid="1" gridSize="10" guides="1" tooltips="1" connect="1" arrows="1" fold="1" page="1" pageScale="1" pageWidth="850" pageHeight="1100" math="0" shadow="0">
      <root>
        <mxCell id="0" />
        <mxCell id="1" parent="0" />
        <mxCell id="oOugs2KjSpueSudqjdDL-2" value="" style="strokeWidth=1;shadow=0;dashed=0;align=center;html=1;shape=mxgraph.mockup.containers.browserWindow;rSize=0;strokeColor=#666666;strokeColor2=#008cff;strokeColor3=#c4c4c4;mainText=,;recursiveResize=0;fillColor=#FFFFFF;" parent="1" vertex="1">
          <mxGeometry x="80" y="40" width="800" height="520" as="geometry" />
        </mxCell>
        <mxCell id="oOugs2KjSpueSudqjdDL-3" value="Machtwatch" style="strokeWidth=1;shadow=0;dashed=0;align=center;html=1;shape=mxgraph.mockup.containers.anchor;fontSize=17;fontColor=#666666;align=left;" parent="oOugs2KjSpueSudqjdDL-2" vertex="1">
          <mxGeometry x="60" y="12" width="110" height="26" as="geometry" />
        </mxCell>
        <mxCell id="oOugs2KjSpueSudqjdDL-4" value="https://experiment-tools.machtwatch.co.id" style="strokeWidth=1;shadow=0;dashed=0;align=center;html=1;shape=mxgraph.mockup.containers.anchor;rSize=0;fontSize=17;fontColor=#666666;align=left;" parent="oOugs2KjSpueSudqjdDL-2" vertex="1">
          <mxGeometry x="130" y="60" width="250" height="26" as="geometry" />
        </mxCell>
        <mxCell id="oOugs2KjSpueSudqjdDL-12" value="Feature Name" style="strokeWidth=1;shadow=0;dashed=0;align=center;html=1;shape=mxgraph.mockup.text.textBox;fontColor=#666666;align=left;fontSize=17;spacingLeft=4;spacingTop=-3;strokeColor=#666666;mainText=" parent="oOugs2KjSpueSudqjdDL-2" vertex="1">
          <mxGeometry x="160" y="120" width="560" height="30" as="geometry" />
        </mxCell>
        <mxCell id="oOugs2KjSpueSudqjdDL-13" value="" style="strokeWidth=1;shadow=0;dashed=0;align=center;html=1;shape=mxgraph.mockup.containers.rrect;rSize=0;strokeColor=#666666;" parent="oOugs2KjSpueSudqjdDL-2" vertex="1">
          <mxGeometry x="10" y="120" width="100" height="270" as="geometry" />
        </mxCell>
        <mxCell id="oOugs2KjSpueSudqjdDL-14" value="Overview" style="strokeColor=inherit;fillColor=inherit;gradientColor=inherit;strokeWidth=1;shadow=0;dashed=0;align=center;html=1;shape=mxgraph.mockup.containers.rrect;rSize=0;fontSize=17;fontColor=#666666;fontStyle=1;resizeWidth=1;" parent="oOugs2KjSpueSudqjdDL-13" vertex="1">
          <mxGeometry width="100" height="26" relative="1" as="geometry" />
        </mxCell>
        <mxCell id="oOugs2KjSpueSudqjdDL-15" value="Features" style="strokeColor=inherit;fillColor=inherit;gradientColor=inherit;strokeWidth=1;shadow=0;dashed=0;align=center;html=1;shape=mxgraph.mockup.containers.rrect;rSize=0;fontSize=17;fontColor=#666666;fontStyle=1;resizeWidth=1;" parent="oOugs2KjSpueSudqjdDL-13" vertex="1">
          <mxGeometry width="100" height="26" relative="1" as="geometry">
            <mxPoint y="26" as="offset" />
          </mxGeometry>
        </mxCell>
        <mxCell id="oOugs2KjSpueSudqjdDL-16" value="Audiences" style="strokeWidth=1;shadow=0;dashed=0;align=center;html=1;shape=mxgraph.mockup.containers.rrect;rSize=0;fontSize=17;fontColor=#ffffff;fontStyle=1;fillColor=#008cff;strokeColor=#008cff;resizeWidth=1;" parent="oOugs2KjSpueSudqjdDL-13" vertex="1">
          <mxGeometry width="100" height="26" relative="1" as="geometry">
            <mxPoint y="52" as="offset" />
          </mxGeometry>
        </mxCell>
        <mxCell id="oOugs2KjSpueSudqjdDL-17" value="" style="strokeColor=inherit;fillColor=inherit;gradientColor=inherit;strokeWidth=1;shadow=0;dashed=0;align=center;html=1;shape=mxgraph.mockup.containers.rrect;rSize=0;fontSize=17;fontColor=#666666;fontStyle=1;resizeWidth=1;" parent="oOugs2KjSpueSudqjdDL-13" vertex="1">
          <mxGeometry y="1" width="100" height="26" relative="1" as="geometry">
            <mxPoint y="-26" as="offset" />
          </mxGeometry>
        </mxCell>
        <mxCell id="oOugs2KjSpueSudqjdDL-18" value="" style="strokeWidth=1;shadow=0;dashed=0;align=center;html=1;shape=mxgraph.mockup.containers.rrect;rSize=0;strokeColor=#666666;" parent="oOugs2KjSpueSudqjdDL-13" vertex="1">
          <mxGeometry width="100" height="270" as="geometry" />
        </mxCell>
        <mxCell id="oOugs2KjSpueSudqjdDL-19" value="Overview" style="strokeColor=inherit;fillColor=inherit;gradientColor=inherit;strokeWidth=1;shadow=0;dashed=0;align=center;html=1;shape=mxgraph.mockup.containers.rrect;rSize=0;fontSize=17;fontColor=#666666;fontStyle=1;resizeWidth=1;" parent="oOugs2KjSpueSudqjdDL-18" vertex="1">
          <mxGeometry width="100" height="26" relative="1" as="geometry" />
        </mxCell>
        <mxCell id="oOugs2KjSpueSudqjdDL-20" value="Audiences" style="strokeColor=inherit;fillColor=inherit;gradientColor=inherit;strokeWidth=1;shadow=0;dashed=0;align=center;html=1;shape=mxgraph.mockup.containers.rrect;rSize=0;fontSize=17;fontColor=#666666;fontStyle=1;resizeWidth=1;" parent="oOugs2KjSpueSudqjdDL-18" vertex="1">
          <mxGeometry width="100" height="26" relative="1" as="geometry">
            <mxPoint y="54" as="offset" />
          </mxGeometry>
        </mxCell>
        <mxCell id="oOugs2KjSpueSudqjdDL-21" value="Features" style="strokeWidth=1;shadow=0;dashed=0;align=center;html=1;shape=mxgraph.mockup.containers.rrect;rSize=0;fontSize=17;fontColor=#ffffff;fontStyle=1;fillColor=#008cff;strokeColor=#008cff;resizeWidth=1;" parent="oOugs2KjSpueSudqjdDL-18" vertex="1">
          <mxGeometry width="100" height="26" relative="1" as="geometry">
            <mxPoint y="27" as="offset" />
          </mxGeometry>
        </mxCell>
        <mxCell id="oOugs2KjSpueSudqjdDL-22" value="" style="strokeColor=inherit;fillColor=inherit;gradientColor=inherit;strokeWidth=1;shadow=0;dashed=0;align=center;html=1;shape=mxgraph.mockup.containers.rrect;rSize=0;fontSize=17;fontColor=#666666;fontStyle=1;resizeWidth=1;" parent="oOugs2KjSpueSudqjdDL-18" vertex="1">
          <mxGeometry y="1" width="100" height="26" relative="1" as="geometry">
            <mxPoint y="-26" as="offset" />
          </mxGeometry>
        </mxCell>
        <mxCell id="oOugs2KjSpueSudqjdDL-26" value="Description" style="strokeWidth=1;shadow=0;dashed=0;align=center;html=1;shape=mxgraph.mockup.text.textBox;fontColor=#666666;align=left;fontSize=17;spacingLeft=4;spacingTop=-3;strokeColor=#666666;mainText=" parent="oOugs2KjSpueSudqjdDL-2" vertex="1">
          <mxGeometry x="160" y="174" width="560" height="100" as="geometry" />
        </mxCell>
        <mxCell id="oOugs2KjSpueSudqjdDL-28" value="Email" style="strokeWidth=1;shadow=0;dashed=0;align=center;html=1;shape=mxgraph.mockup.forms.comboBox;strokeColor=#999999;fillColor=#ddeeff;align=left;fillColor2=#aaddff;mainText=;fontColor=#666666;fontSize=17;spacingLeft=3;" parent="oOugs2KjSpueSudqjdDL-2" vertex="1">
          <mxGeometry x="160" y="300" width="150" height="30" as="geometry" />
        </mxCell>
        <mxCell id="oOugs2KjSpueSudqjdDL-29" value="hendrik@gmail.com" style="strokeWidth=1;shadow=0;dashed=0;align=center;html=1;shape=mxgraph.mockup.text.textBox;fontColor=#666666;align=left;fontSize=17;spacingLeft=4;spacingTop=-3;strokeColor=#666666;mainText=" parent="oOugs2KjSpueSudqjdDL-2" vertex="1">
          <mxGeometry x="340" y="300" width="260" height="30" as="geometry" />
        </mxCell>
        <mxCell id="oOugs2KjSpueSudqjdDL-30" value="ON" style="strokeWidth=1;shadow=0;dashed=0;align=center;html=1;shape=mxgraph.mockup.buttons.onOffButton;gradientColor=none;strokeColor=#999999;buttonState=on;fillColor2=#008cff;fontColor=#ffffff;fontSize=17;mainText=;spacingRight=40;fontStyle=1;" parent="oOugs2KjSpueSudqjdDL-2" vertex="1">
          <mxGeometry x="160" y="365" width="90" height="30" as="geometry" />
        </mxCell>
        <mxCell id="oOugs2KjSpueSudqjdDL-31" value="" style="strokeWidth=1;shadow=0;dashed=0;align=center;html=1;shape=mxgraph.mockup.buttons.multiButton;fillColor=#008cff;strokeColor=#666666;mainText=;subText=;" parent="oOugs2KjSpueSudqjdDL-2" vertex="1">
          <mxGeometry x="160" y="420" width="150" height="50" as="geometry" />
        </mxCell>
        <mxCell id="oOugs2KjSpueSudqjdDL-32" value="Submit" style="strokeWidth=1;shadow=0;dashed=0;align=center;html=1;shape=mxgraph.mockup.anchor;fontSize=16;fontColor=#ffffff;fontStyle=1;whiteSpace=wrap;" parent="oOugs2KjSpueSudqjdDL-31" vertex="1">
          <mxGeometry width="150" height="50" as="geometry" />
        </mxCell>
        <mxCell id="oOugs2KjSpueSudqjdDL-34" value="" style="strokeWidth=1;shadow=0;dashed=0;align=center;html=1;shape=mxgraph.mockup.buttons.multiButton;fillColor=#858585;strokeColor=#666666;mainText=;subText=;" parent="oOugs2KjSpueSudqjdDL-2" vertex="1">
          <mxGeometry x="360" y="420" width="150" height="50" as="geometry" />
        </mxCell>
        <mxCell id="oOugs2KjSpueSudqjdDL-35" value="Cancel" style="strokeWidth=1;shadow=0;dashed=0;align=center;html=1;shape=mxgraph.mockup.anchor;fontSize=16;fontColor=#ffffff;fontStyle=1;whiteSpace=wrap;" parent="oOugs2KjSpueSudqjdDL-34" vertex="1">
          <mxGeometry width="150" height="50" as="geometry" />
        </mxCell>
        <mxCell id="obT5BtHzNgxtlvuNU1k0-24" value="" style="verticalLabelPosition=bottom;verticalAlign=top;html=1;shadow=0;dashed=0;strokeWidth=1;shape=mxgraph.ios.iAddIcon;fillColor=#7AdF78;fillColor2=#1A9917;strokeColor=#ffffff;" vertex="1" parent="oOugs2KjSpueSudqjdDL-2">
          <mxGeometry x="648" y="299" width="32" height="32" as="geometry" />
        </mxCell>
        <mxCell id="obT5BtHzNgxtlvuNU1k0-1" value="" style="strokeWidth=1;shadow=0;dashed=0;align=center;html=1;shape=mxgraph.mockup.containers.browserWindow;rSize=0;strokeColor=#666666;strokeColor2=#008cff;strokeColor3=#c4c4c4;mainText=,;recursiveResize=0;fillColor=#FFFFFF;" vertex="1" parent="1">
          <mxGeometry x="80" y="1240" width="800" height="520" as="geometry" />
        </mxCell>
        <mxCell id="obT5BtHzNgxtlvuNU1k0-2" value="Page 1" style="strokeWidth=1;shadow=0;dashed=0;align=center;html=1;shape=mxgraph.mockup.containers.anchor;fontSize=17;fontColor=#666666;align=left;" vertex="1" parent="obT5BtHzNgxtlvuNU1k0-1">
          <mxGeometry x="60" y="12" width="110" height="26" as="geometry" />
        </mxCell>
        <mxCell id="obT5BtHzNgxtlvuNU1k0-3" value="https://experiment-tools.machtwatch.co.id" style="strokeWidth=1;shadow=0;dashed=0;align=center;html=1;shape=mxgraph.mockup.containers.anchor;rSize=0;fontSize=17;fontColor=#666666;align=left;" vertex="1" parent="obT5BtHzNgxtlvuNU1k0-1">
          <mxGeometry x="130" y="60" width="250" height="26" as="geometry" />
        </mxCell>
        <mxCell id="obT5BtHzNgxtlvuNU1k0-4" value="Audience Name" style="strokeWidth=1;shadow=0;dashed=0;align=center;html=1;shape=mxgraph.mockup.text.textBox;fontColor=#666666;align=left;fontSize=17;spacingLeft=4;spacingTop=-3;strokeColor=#666666;mainText=" vertex="1" parent="obT5BtHzNgxtlvuNU1k0-1">
          <mxGeometry x="160" y="120" width="520" height="30" as="geometry" />
        </mxCell>
        <mxCell id="obT5BtHzNgxtlvuNU1k0-5" value="" style="strokeWidth=1;shadow=0;dashed=0;align=center;html=1;shape=mxgraph.mockup.containers.rrect;rSize=0;strokeColor=#666666;" vertex="1" parent="obT5BtHzNgxtlvuNU1k0-1">
          <mxGeometry x="10" y="120" width="100" height="270" as="geometry" />
        </mxCell>
        <mxCell id="obT5BtHzNgxtlvuNU1k0-6" value="Overview" style="strokeColor=inherit;fillColor=inherit;gradientColor=inherit;strokeWidth=1;shadow=0;dashed=0;align=center;html=1;shape=mxgraph.mockup.containers.rrect;rSize=0;fontSize=17;fontColor=#666666;fontStyle=1;resizeWidth=1;" vertex="1" parent="obT5BtHzNgxtlvuNU1k0-5">
          <mxGeometry width="100" height="26" relative="1" as="geometry" />
        </mxCell>
        <mxCell id="obT5BtHzNgxtlvuNU1k0-7" value="Features" style="strokeColor=inherit;fillColor=inherit;gradientColor=inherit;strokeWidth=1;shadow=0;dashed=0;align=center;html=1;shape=mxgraph.mockup.containers.rrect;rSize=0;fontSize=17;fontColor=#666666;fontStyle=1;resizeWidth=1;" vertex="1" parent="obT5BtHzNgxtlvuNU1k0-5">
          <mxGeometry width="100" height="26" relative="1" as="geometry">
            <mxPoint y="26" as="offset" />
          </mxGeometry>
        </mxCell>
        <mxCell id="obT5BtHzNgxtlvuNU1k0-8" value="Audiences" style="strokeWidth=1;shadow=0;dashed=0;align=center;html=1;shape=mxgraph.mockup.containers.rrect;rSize=0;fontSize=17;fontColor=#ffffff;fontStyle=1;fillColor=#008cff;strokeColor=#008cff;resizeWidth=1;" vertex="1" parent="obT5BtHzNgxtlvuNU1k0-5">
          <mxGeometry width="100" height="26" relative="1" as="geometry">
            <mxPoint y="52" as="offset" />
          </mxGeometry>
        </mxCell>
        <mxCell id="obT5BtHzNgxtlvuNU1k0-9" value="" style="strokeColor=inherit;fillColor=inherit;gradientColor=inherit;strokeWidth=1;shadow=0;dashed=0;align=center;html=1;shape=mxgraph.mockup.containers.rrect;rSize=0;fontSize=17;fontColor=#666666;fontStyle=1;resizeWidth=1;" vertex="1" parent="obT5BtHzNgxtlvuNU1k0-5">
          <mxGeometry y="1" width="100" height="26" relative="1" as="geometry">
            <mxPoint y="-26" as="offset" />
          </mxGeometry>
        </mxCell>
        <mxCell id="obT5BtHzNgxtlvuNU1k0-10" value="" style="strokeWidth=1;shadow=0;dashed=0;align=center;html=1;shape=mxgraph.mockup.containers.rrect;rSize=0;strokeColor=#666666;" vertex="1" parent="obT5BtHzNgxtlvuNU1k0-5">
          <mxGeometry width="100" height="270" as="geometry" />
        </mxCell>
        <mxCell id="obT5BtHzNgxtlvuNU1k0-11" value="Overview" style="strokeColor=inherit;fillColor=inherit;gradientColor=inherit;strokeWidth=1;shadow=0;dashed=0;align=center;html=1;shape=mxgraph.mockup.containers.rrect;rSize=0;fontSize=17;fontColor=#666666;fontStyle=1;resizeWidth=1;" vertex="1" parent="obT5BtHzNgxtlvuNU1k0-10">
          <mxGeometry width="100" height="26" relative="1" as="geometry" />
        </mxCell>
        <mxCell id="obT5BtHzNgxtlvuNU1k0-12" value="Features" style="strokeColor=inherit;fillColor=inherit;gradientColor=inherit;strokeWidth=1;shadow=0;dashed=0;align=center;html=1;shape=mxgraph.mockup.containers.rrect;rSize=0;fontSize=17;fontColor=#666666;fontStyle=1;resizeWidth=1;" vertex="1" parent="obT5BtHzNgxtlvuNU1k0-10">
          <mxGeometry width="100" height="26" relative="1" as="geometry">
            <mxPoint y="25" as="offset" />
          </mxGeometry>
        </mxCell>
        <mxCell id="obT5BtHzNgxtlvuNU1k0-13" value="Audiences" style="strokeWidth=1;shadow=0;dashed=0;align=center;html=1;shape=mxgraph.mockup.containers.rrect;rSize=0;fontSize=17;fontColor=#ffffff;fontStyle=1;fillColor=#008cff;strokeColor=#008cff;resizeWidth=1;" vertex="1" parent="obT5BtHzNgxtlvuNU1k0-10">
          <mxGeometry width="100" height="26" relative="1" as="geometry">
            <mxPoint y="52" as="offset" />
          </mxGeometry>
        </mxCell>
        <mxCell id="obT5BtHzNgxtlvuNU1k0-14" value="" style="strokeColor=inherit;fillColor=inherit;gradientColor=inherit;strokeWidth=1;shadow=0;dashed=0;align=center;html=1;shape=mxgraph.mockup.containers.rrect;rSize=0;fontSize=17;fontColor=#666666;fontStyle=1;resizeWidth=1;" vertex="1" parent="obT5BtHzNgxtlvuNU1k0-10">
          <mxGeometry y="1" width="100" height="26" relative="1" as="geometry">
            <mxPoint y="-26" as="offset" />
          </mxGeometry>
        </mxCell>
        <mxCell id="obT5BtHzNgxtlvuNU1k0-16" value="Description" style="strokeWidth=1;shadow=0;dashed=0;align=center;html=1;shape=mxgraph.mockup.text.textBox;fontColor=#666666;align=left;fontSize=17;spacingLeft=4;spacingTop=-3;strokeColor=#666666;mainText=" vertex="1" parent="obT5BtHzNgxtlvuNU1k0-1">
          <mxGeometry x="160" y="270" width="520" height="100" as="geometry" />
        </mxCell>
        <mxCell id="obT5BtHzNgxtlvuNU1k0-20" value="" style="strokeWidth=1;shadow=0;dashed=0;align=center;html=1;shape=mxgraph.mockup.buttons.multiButton;fillColor=#008cff;strokeColor=#666666;mainText=;subText=;" vertex="1" parent="obT5BtHzNgxtlvuNU1k0-1">
          <mxGeometry x="160" y="420" width="150" height="50" as="geometry" />
        </mxCell>
        <mxCell id="obT5BtHzNgxtlvuNU1k0-21" value="Submit" style="strokeWidth=1;shadow=0;dashed=0;align=center;html=1;shape=mxgraph.mockup.anchor;fontSize=16;fontColor=#ffffff;fontStyle=1;whiteSpace=wrap;" vertex="1" parent="obT5BtHzNgxtlvuNU1k0-20">
          <mxGeometry width="150" height="50" as="geometry" />
        </mxCell>
        <mxCell id="obT5BtHzNgxtlvuNU1k0-22" value="" style="strokeWidth=1;shadow=0;dashed=0;align=center;html=1;shape=mxgraph.mockup.buttons.multiButton;fillColor=#858585;strokeColor=#666666;mainText=;subText=;" vertex="1" parent="obT5BtHzNgxtlvuNU1k0-1">
          <mxGeometry x="370" y="420" width="150" height="50" as="geometry" />
        </mxCell>
        <mxCell id="obT5BtHzNgxtlvuNU1k0-23" value="Cancel" style="strokeWidth=1;shadow=0;dashed=0;align=center;html=1;shape=mxgraph.mockup.anchor;fontSize=16;fontColor=#ffffff;fontStyle=1;whiteSpace=wrap;" vertex="1" parent="obT5BtHzNgxtlvuNU1k0-22">
          <mxGeometry width="150" height="50" as="geometry" />
        </mxCell>
        <mxCell id="obT5BtHzNgxtlvuNU1k0-66" value="Email" style="rounded=1;fillColor=#253858;strokeColor=none;html=1;fontColor=#ffffff;align=left;fontSize=12;spacingLeft=10" vertex="1" parent="obT5BtHzNgxtlvuNU1k0-1">
          <mxGeometry x="160" y="170" width="100" height="33" as="geometry" />
        </mxCell>
        <mxCell id="obT5BtHzNgxtlvuNU1k0-67" value="" style="shape=triangle;direction=south;fillColor=#ffffff;strokeColor=none;html=1" vertex="1" parent="obT5BtHzNgxtlvuNU1k0-66">
          <mxGeometry x="1" y="0.5" width="12" height="6" relative="1" as="geometry">
            <mxPoint x="-20" y="-3" as="offset" />
          </mxGeometry>
        </mxCell>
        <mxCell id="obT5BtHzNgxtlvuNU1k0-68" value="" style="rounded=1;fillColor=#ffffff;strokeColor=#DFE1E5;shadow=1;html=1;arcSize=4" vertex="1" parent="obT5BtHzNgxtlvuNU1k0-1">
          <mxGeometry x="160" y="203" width="110" height="37" as="geometry" />
        </mxCell>
        <mxCell id="obT5BtHzNgxtlvuNU1k0-69" value="City" style="rounded=0;fillColor=#F4F5F7;strokeColor=none;shadow=0;html=1;align=left;fontSize=12;spacingLeft=10;fontColor=#253858;resizeWidth=1" vertex="1" parent="obT5BtHzNgxtlvuNU1k0-68">
          <mxGeometry width="110" height="33" relative="1" as="geometry">
            <mxPoint y="6" as="offset" />
          </mxGeometry>
        </mxCell>
        <mxCell id="obT5BtHzNgxtlvuNU1k0-25" value="" style="strokeWidth=1;shadow=0;dashed=0;align=center;html=1;shape=mxgraph.mockup.containers.browserWindow;rSize=0;strokeColor=#666666;strokeColor2=#008cff;strokeColor3=#c4c4c4;mainText=,;recursiveResize=0;fillColor=#FFFFFF;" vertex="1" parent="1">
          <mxGeometry x="80" y="640" width="800" height="520" as="geometry" />
        </mxCell>
        <mxCell id="obT5BtHzNgxtlvuNU1k0-26" value="Machtwatch" style="strokeWidth=1;shadow=0;dashed=0;align=center;html=1;shape=mxgraph.mockup.containers.anchor;fontSize=17;fontColor=#666666;align=left;" vertex="1" parent="obT5BtHzNgxtlvuNU1k0-25">
          <mxGeometry x="60" y="12" width="110" height="26" as="geometry" />
        </mxCell>
        <mxCell id="obT5BtHzNgxtlvuNU1k0-27" value="https://experiment-tools.machtwatch.co.id" style="strokeWidth=1;shadow=0;dashed=0;align=center;html=1;shape=mxgraph.mockup.containers.anchor;rSize=0;fontSize=17;fontColor=#666666;align=left;" vertex="1" parent="obT5BtHzNgxtlvuNU1k0-25">
          <mxGeometry x="130" y="60" width="250" height="26" as="geometry" />
        </mxCell>
        <mxCell id="obT5BtHzNgxtlvuNU1k0-29" value="" style="strokeWidth=1;shadow=0;dashed=0;align=center;html=1;shape=mxgraph.mockup.containers.rrect;rSize=0;strokeColor=#666666;" vertex="1" parent="obT5BtHzNgxtlvuNU1k0-25">
          <mxGeometry x="10" y="120" width="100" height="270" as="geometry" />
        </mxCell>
        <mxCell id="obT5BtHzNgxtlvuNU1k0-30" value="Overview" style="strokeColor=inherit;fillColor=inherit;gradientColor=inherit;strokeWidth=1;shadow=0;dashed=0;align=center;html=1;shape=mxgraph.mockup.containers.rrect;rSize=0;fontSize=17;fontColor=#666666;fontStyle=1;resizeWidth=1;" vertex="1" parent="obT5BtHzNgxtlvuNU1k0-29">
          <mxGeometry width="100" height="26" relative="1" as="geometry" />
        </mxCell>
        <mxCell id="obT5BtHzNgxtlvuNU1k0-31" value="Features" style="strokeColor=inherit;fillColor=inherit;gradientColor=inherit;strokeWidth=1;shadow=0;dashed=0;align=center;html=1;shape=mxgraph.mockup.containers.rrect;rSize=0;fontSize=17;fontColor=#666666;fontStyle=1;resizeWidth=1;" vertex="1" parent="obT5BtHzNgxtlvuNU1k0-29">
          <mxGeometry width="100" height="26" relative="1" as="geometry">
            <mxPoint y="26" as="offset" />
          </mxGeometry>
        </mxCell>
        <mxCell id="obT5BtHzNgxtlvuNU1k0-32" value="Audiences" style="strokeWidth=1;shadow=0;dashed=0;align=center;html=1;shape=mxgraph.mockup.containers.rrect;rSize=0;fontSize=17;fontColor=#ffffff;fontStyle=1;fillColor=#008cff;strokeColor=#008cff;resizeWidth=1;" vertex="1" parent="obT5BtHzNgxtlvuNU1k0-29">
          <mxGeometry width="100" height="26" relative="1" as="geometry">
            <mxPoint y="52" as="offset" />
          </mxGeometry>
        </mxCell>
        <mxCell id="obT5BtHzNgxtlvuNU1k0-33" value="" style="strokeColor=inherit;fillColor=inherit;gradientColor=inherit;strokeWidth=1;shadow=0;dashed=0;align=center;html=1;shape=mxgraph.mockup.containers.rrect;rSize=0;fontSize=17;fontColor=#666666;fontStyle=1;resizeWidth=1;" vertex="1" parent="obT5BtHzNgxtlvuNU1k0-29">
          <mxGeometry y="1" width="100" height="26" relative="1" as="geometry">
            <mxPoint y="-26" as="offset" />
          </mxGeometry>
        </mxCell>
        <mxCell id="obT5BtHzNgxtlvuNU1k0-34" value="" style="strokeWidth=1;shadow=0;dashed=0;align=center;html=1;shape=mxgraph.mockup.containers.rrect;rSize=0;strokeColor=#666666;" vertex="1" parent="obT5BtHzNgxtlvuNU1k0-29">
          <mxGeometry width="100" height="270" as="geometry" />
        </mxCell>
        <mxCell id="obT5BtHzNgxtlvuNU1k0-35" value="Overview" style="strokeColor=inherit;fillColor=inherit;gradientColor=inherit;strokeWidth=1;shadow=0;dashed=0;align=center;html=1;shape=mxgraph.mockup.containers.rrect;rSize=0;fontSize=17;fontColor=#666666;fontStyle=1;resizeWidth=1;" vertex="1" parent="obT5BtHzNgxtlvuNU1k0-34">
          <mxGeometry width="100" height="26" relative="1" as="geometry" />
        </mxCell>
        <mxCell id="obT5BtHzNgxtlvuNU1k0-36" value="Audiences" style="strokeColor=inherit;fillColor=inherit;gradientColor=inherit;strokeWidth=1;shadow=0;dashed=0;align=center;html=1;shape=mxgraph.mockup.containers.rrect;rSize=0;fontSize=17;fontColor=#666666;fontStyle=1;resizeWidth=1;" vertex="1" parent="obT5BtHzNgxtlvuNU1k0-34">
          <mxGeometry width="100" height="26" relative="1" as="geometry">
            <mxPoint y="52" as="offset" />
          </mxGeometry>
        </mxCell>
        <mxCell id="obT5BtHzNgxtlvuNU1k0-37" value="Features" style="strokeWidth=1;shadow=0;dashed=0;align=center;html=1;shape=mxgraph.mockup.containers.rrect;rSize=0;fontSize=17;fontColor=#ffffff;fontStyle=1;fillColor=#008cff;strokeColor=#008cff;resizeWidth=1;" vertex="1" parent="obT5BtHzNgxtlvuNU1k0-34">
          <mxGeometry width="100" height="26" relative="1" as="geometry">
            <mxPoint y="25" as="offset" />
          </mxGeometry>
        </mxCell>
        <mxCell id="obT5BtHzNgxtlvuNU1k0-38" value="" style="strokeColor=inherit;fillColor=inherit;gradientColor=inherit;strokeWidth=1;shadow=0;dashed=0;align=center;html=1;shape=mxgraph.mockup.containers.rrect;rSize=0;fontSize=17;fontColor=#666666;fontStyle=1;resizeWidth=1;" vertex="1" parent="obT5BtHzNgxtlvuNU1k0-34">
          <mxGeometry y="1" width="100" height="26" relative="1" as="geometry">
            <mxPoint y="-26" as="offset" />
          </mxGeometry>
        </mxCell>
        <mxCell id="obT5BtHzNgxtlvuNU1k0-49" value="&lt;table border=&quot;1&quot; width=&quot;100%&quot; cellpadding=&quot;4&quot; style=&quot;width: 100% ; height: 100% ; border-collapse: collapse&quot;&gt;&lt;tbody&gt;&lt;tr style=&quot;background-color: #a7c942 ; color: #ffffff ; border: 1px solid #98bf21&quot;&gt;&lt;th align=&quot;left&quot;&gt;Feature Name&lt;/th&gt;&lt;th align=&quot;left&quot;&gt;Description&lt;/th&gt;&lt;th align=&quot;left&quot;&gt;Whistelist(s)&amp;nbsp;&lt;/th&gt;&lt;/tr&gt;&lt;tr style=&quot;border: 1px solid #98bf21&quot;&gt;&lt;td&gt;Shipping JNE&lt;/td&gt;&lt;td&gt;Buat Shipping JNE&lt;/td&gt;&lt;td&gt;Email :&lt;br&gt;- user@machtwatch.co.id&lt;/td&gt;&lt;/tr&gt;&lt;tr style=&quot;background-color: #eaf2d3 ; border: 1px solid #98bf21&quot;&gt;&lt;td&gt;Product&lt;/td&gt;&lt;td&gt;Buat product&lt;/td&gt;&lt;td&gt;City :&lt;br&gt;- Jakarta&lt;br&gt;- Bandung&lt;/td&gt;&lt;/tr&gt;&lt;tr style=&quot;border: 1px solid #98bf21&quot;&gt;&lt;td&gt;Payment&lt;/td&gt;&lt;td&gt;Buat Payment&lt;/td&gt;&lt;td&gt;Email :&lt;br&gt;- hendrik@machtwatch.co.id&lt;br&gt;&lt;br&gt;City :&lt;br style=&quot;background-color: rgb(234 , 242 , 211)&quot;&gt;&lt;span style=&quot;background-color: rgb(234 , 242 , 211)&quot;&gt;- Medan&lt;/span&gt;&lt;br&gt;&lt;/td&gt;&lt;/tr&gt;&lt;tr style=&quot;background-color: #eaf2d3 ; border: 1px solid #98bf21&quot;&gt;&lt;td&gt;Tracking&lt;/td&gt;&lt;td&gt;Buat Trace Order&lt;/td&gt;&lt;td&gt;&lt;span style=&quot;background-color: rgb(248 , 249 , 250)&quot;&gt;Email :&lt;/span&gt;&lt;br style=&quot;background-color: rgb(248 , 249 , 250)&quot;&gt;&lt;span style=&quot;background-color: rgb(248 , 249 , 250)&quot;&gt;- user2@machtwatch.co.id&lt;/span&gt;&lt;br&gt;&lt;/td&gt;&lt;/tr&gt;&lt;/tbody&gt;&lt;/table&gt;" style="text;html=1;strokeColor=#c0c0c0;fillColor=#ffffff;overflow=fill;rounded=0;" vertex="1" parent="obT5BtHzNgxtlvuNU1k0-25">
          <mxGeometry x="140" y="120" width="630" height="270" as="geometry" />
        </mxCell>
        <mxCell id="obT5BtHzNgxtlvuNU1k0-51" value="" style="strokeWidth=1;shadow=0;dashed=0;align=center;html=1;shape=mxgraph.mockup.containers.browserWindow;rSize=0;strokeColor=#666666;strokeColor2=#008cff;strokeColor3=#c4c4c4;mainText=,;recursiveResize=0;fillColor=#FFFFFF;" vertex="1" parent="1">
          <mxGeometry x="80" y="1840" width="800" height="520" as="geometry" />
        </mxCell>
        <mxCell id="obT5BtHzNgxtlvuNU1k0-52" value="Page 1" style="strokeWidth=1;shadow=0;dashed=0;align=center;html=1;shape=mxgraph.mockup.containers.anchor;fontSize=17;fontColor=#666666;align=left;" vertex="1" parent="obT5BtHzNgxtlvuNU1k0-51">
          <mxGeometry x="60" y="12" width="110" height="26" as="geometry" />
        </mxCell>
        <mxCell id="obT5BtHzNgxtlvuNU1k0-53" value="https://experiment-tools.machtwatch.co.id" style="strokeWidth=1;shadow=0;dashed=0;align=center;html=1;shape=mxgraph.mockup.containers.anchor;rSize=0;fontSize=17;fontColor=#666666;align=left;" vertex="1" parent="obT5BtHzNgxtlvuNU1k0-51">
          <mxGeometry x="130" y="60" width="250" height="26" as="geometry" />
        </mxCell>
        <mxCell id="obT5BtHzNgxtlvuNU1k0-54" value="" style="strokeWidth=1;shadow=0;dashed=0;align=center;html=1;shape=mxgraph.mockup.containers.rrect;rSize=0;strokeColor=#666666;" vertex="1" parent="obT5BtHzNgxtlvuNU1k0-51">
          <mxGeometry x="10" y="120" width="100" height="270" as="geometry" />
        </mxCell>
        <mxCell id="obT5BtHzNgxtlvuNU1k0-55" value="Overview" style="strokeColor=inherit;fillColor=inherit;gradientColor=inherit;strokeWidth=1;shadow=0;dashed=0;align=center;html=1;shape=mxgraph.mockup.containers.rrect;rSize=0;fontSize=17;fontColor=#666666;fontStyle=1;resizeWidth=1;" vertex="1" parent="obT5BtHzNgxtlvuNU1k0-54">
          <mxGeometry width="100" height="26" relative="1" as="geometry" />
        </mxCell>
        <mxCell id="obT5BtHzNgxtlvuNU1k0-56" value="Features" style="strokeColor=inherit;fillColor=inherit;gradientColor=inherit;strokeWidth=1;shadow=0;dashed=0;align=center;html=1;shape=mxgraph.mockup.containers.rrect;rSize=0;fontSize=17;fontColor=#666666;fontStyle=1;resizeWidth=1;" vertex="1" parent="obT5BtHzNgxtlvuNU1k0-54">
          <mxGeometry width="100" height="26" relative="1" as="geometry">
            <mxPoint y="26" as="offset" />
          </mxGeometry>
        </mxCell>
        <mxCell id="obT5BtHzNgxtlvuNU1k0-57" value="Audiences" style="strokeWidth=1;shadow=0;dashed=0;align=center;html=1;shape=mxgraph.mockup.containers.rrect;rSize=0;fontSize=17;fontColor=#ffffff;fontStyle=1;fillColor=#008cff;strokeColor=#008cff;resizeWidth=1;" vertex="1" parent="obT5BtHzNgxtlvuNU1k0-54">
          <mxGeometry width="100" height="26" relative="1" as="geometry">
            <mxPoint y="52" as="offset" />
          </mxGeometry>
        </mxCell>
        <mxCell id="obT5BtHzNgxtlvuNU1k0-58" value="" style="strokeColor=inherit;fillColor=inherit;gradientColor=inherit;strokeWidth=1;shadow=0;dashed=0;align=center;html=1;shape=mxgraph.mockup.containers.rrect;rSize=0;fontSize=17;fontColor=#666666;fontStyle=1;resizeWidth=1;" vertex="1" parent="obT5BtHzNgxtlvuNU1k0-54">
          <mxGeometry y="1" width="100" height="26" relative="1" as="geometry">
            <mxPoint y="-26" as="offset" />
          </mxGeometry>
        </mxCell>
        <mxCell id="obT5BtHzNgxtlvuNU1k0-59" value="" style="strokeWidth=1;shadow=0;dashed=0;align=center;html=1;shape=mxgraph.mockup.containers.rrect;rSize=0;strokeColor=#666666;" vertex="1" parent="obT5BtHzNgxtlvuNU1k0-54">
          <mxGeometry width="100" height="270" as="geometry" />
        </mxCell>
        <mxCell id="obT5BtHzNgxtlvuNU1k0-60" value="Overview" style="strokeColor=inherit;fillColor=inherit;gradientColor=inherit;strokeWidth=1;shadow=0;dashed=0;align=center;html=1;shape=mxgraph.mockup.containers.rrect;rSize=0;fontSize=17;fontColor=#666666;fontStyle=1;resizeWidth=1;" vertex="1" parent="obT5BtHzNgxtlvuNU1k0-59">
          <mxGeometry width="100" height="26" relative="1" as="geometry" />
        </mxCell>
        <mxCell id="obT5BtHzNgxtlvuNU1k0-61" value="Features" style="strokeColor=inherit;fillColor=inherit;gradientColor=inherit;strokeWidth=1;shadow=0;dashed=0;align=center;html=1;shape=mxgraph.mockup.containers.rrect;rSize=0;fontSize=17;fontColor=#666666;fontStyle=1;resizeWidth=1;" vertex="1" parent="obT5BtHzNgxtlvuNU1k0-59">
          <mxGeometry width="100" height="26" relative="1" as="geometry">
            <mxPoint y="26" as="offset" />
          </mxGeometry>
        </mxCell>
        <mxCell id="obT5BtHzNgxtlvuNU1k0-62" value="Audiences" style="strokeWidth=1;shadow=0;dashed=0;align=center;html=1;shape=mxgraph.mockup.containers.rrect;rSize=0;fontSize=17;fontColor=#ffffff;fontStyle=1;fillColor=#008cff;strokeColor=#008cff;resizeWidth=1;" vertex="1" parent="obT5BtHzNgxtlvuNU1k0-59">
          <mxGeometry width="100" height="26" relative="1" as="geometry">
            <mxPoint y="52" as="offset" />
          </mxGeometry>
        </mxCell>
        <mxCell id="obT5BtHzNgxtlvuNU1k0-63" value="" style="strokeColor=inherit;fillColor=inherit;gradientColor=inherit;strokeWidth=1;shadow=0;dashed=0;align=center;html=1;shape=mxgraph.mockup.containers.rrect;rSize=0;fontSize=17;fontColor=#666666;fontStyle=1;resizeWidth=1;" vertex="1" parent="obT5BtHzNgxtlvuNU1k0-59">
          <mxGeometry y="1" width="100" height="26" relative="1" as="geometry">
            <mxPoint y="-26" as="offset" />
          </mxGeometry>
        </mxCell>
        <mxCell id="obT5BtHzNgxtlvuNU1k0-64" value="&lt;table border=&quot;1&quot; width=&quot;100%&quot; cellpadding=&quot;4&quot; style=&quot;width: 100% ; height: 100% ; border-collapse: collapse&quot;&gt;&lt;tbody&gt;&lt;tr style=&quot;background-color: #a7c942 ; color: #ffffff ; border: 1px solid #98bf21&quot;&gt;&lt;th align=&quot;left&quot;&gt;Audience Name&lt;/th&gt;&lt;th align=&quot;left&quot;&gt;Category&lt;/th&gt;&lt;th align=&quot;left&quot;&gt;Description&amp;nbsp;&lt;/th&gt;&lt;/tr&gt;&lt;tr style=&quot;border: 1px solid #98bf21&quot;&gt;&lt;td&gt;hendrik@machtwatch.co.id&lt;/td&gt;&lt;td&gt;Email&lt;/td&gt;&lt;td&gt;Desc 1&lt;/td&gt;&lt;/tr&gt;&lt;tr style=&quot;background-color: #eaf2d3 ; border: 1px solid #98bf21&quot;&gt;&lt;td&gt;Jakarta&lt;/td&gt;&lt;td&gt;City&lt;/td&gt;&lt;td&gt;Jakarta only&lt;/td&gt;&lt;/tr&gt;&lt;tr style=&quot;border: 1px solid #98bf21&quot;&gt;&lt;td&gt;user@machtwatch.co.id&lt;br&gt;&lt;/td&gt;&lt;td&gt;Email&lt;/td&gt;&lt;td&gt;Desc 2&lt;/td&gt;&lt;/tr&gt;&lt;tr style=&quot;background-color: #eaf2d3 ; border: 1px solid #98bf21&quot;&gt;&lt;td&gt;Bandung&lt;/td&gt;&lt;td&gt;City&lt;/td&gt;&lt;td&gt;Khusus masyarakat Bandung&lt;/td&gt;&lt;/tr&gt;&lt;/tbody&gt;&lt;/table&gt;" style="text;html=1;strokeColor=#c0c0c0;fillColor=#ffffff;overflow=fill;rounded=0;" vertex="1" parent="obT5BtHzNgxtlvuNU1k0-51">
          <mxGeometry x="140" y="120" width="630" height="270" as="geometry" />
        </mxCell>
      </root>
    </mxGraphModel>
  </diagram>
</mxfile>
